<?xml version="1.0" encoding="utf-8"?>
<svg version="1.0" xmlns="http://www.w3.org/2000/svg" xmlns:xlink="http://www.w3.org/1999/xlink" x="0px" y="0px"
	 viewBox="0 0 200 200" style="enable-background:new 0 0 200 200;" xml:space="preserve">
<style type="text/css">
	.st0{fill:#000000;}
	.st1{fill:#FB4C00;}
</style>
<g id="Layer_1">
	<g transform="translate(-40, -10)">
		<g>
			<path class="st0" d="M141.2,166.5c-29.3,0-53.2-23.9-53.2-53.2S111.9,60,141.2,60s53.2,23.9,53.2,53.2S170.6,166.5,141.2,166.5z
				 M141.2,73c-22.2,0-40.2,18-40.2,40.2s18,40.2,40.2,40.2s40.2-18,40.2-40.2S163.4,73,141.2,73z"/>
		</g>
		<g>
			<path class="st1" d="M180.6,98.5c-2.4,0-4.4-2-4.4-4.4s2-4.4,4.4-4.4s4.4,2,4.4,4.4S183,98.5,180.6,98.5z"/>
		</g>
		<g>
			<path class="st0" d="M167.9,94.4c-4.6,0-8.4-3.8-8.4-8.4s3.8-8.4,8.4-8.4s8.4,3.8,8.4,8.4S172.5,94.4,167.9,94.4z"/>
		</g>
		<g>
			<path class="st1" d="M168.2,92.2c-3.4,0-6.2-2.8-6.2-6.2s2.8-6.2,6.2-6.2s6.2,2.8,6.2,6.2S171.6,92.2,168.2,92.2z"/>
		</g>
	</g>
</g>
</svg>
