<?xml version="1.0" encoding="utf-8"?>
<svg version="1.0" xmlns="http://www.w3.org/2000/svg" xmlns:xlink="http://www.w3.org/1999/xlink" x="0px" y="0px"
	 viewBox="0 0 500 250" style="enable-background:new 0 0 500 250;" xml:space="preserve">
<style type="text/css">
	.st0{fill:#FFFFFF;}
	.st1{fill:#FB4C00;}
</style>
<g id="Layer_1">
	<g>
		<g>
			<g>
				<path class="st0" d="M141.2,166.5c-29.3,0-53.2-23.9-53.2-53.2S111.9,60,141.2,60s53.2,23.9,53.2,53.2S170.6,166.5,141.2,166.5z
					 M141.2,73c-22.2,0-40.2,18-40.2,40.2s18,40.2,40.2,40.2s40.2-18,40.2-40.2S163.4,73,141.2,73z"/>
			</g>
			<g>
				<path class="st1" d="M180.6,98.5c-2.4,0-4.4-2-4.4-4.4s2-4.4,4.4-4.4s4.4,2,4.4,4.4S183,98.5,180.6,98.5z"/>
			</g>
			<g>
				<path class="st0" d="M167.9,94.4c-4.6,0-8.4-3.8-8.4-8.4s3.8-8.4,8.4-8.4s8.4,3.8,8.4,8.4S172.5,94.4,167.9,94.4z"/>
			</g>
			<g>
				<path class="st1" d="M168.2,92.2c-3.4,0-6.2-2.8-6.2-6.2s2.8-6.2,6.2-6.2s6.2,2.8,6.2,6.2S171.6,92.2,168.2,92.2z"/>
			</g>
		</g>
		<g>
			<g>
				<g transform="translate(174.118776, 204.981301)">
					<g>
						<path class="st0" d="M49.1-49.6c0,1.6-0.4,2.9-1.2,4.1c-0.8,1.1-1.9,1.9-3.3,2.5c-1.4,0.6-3.1,0.9-5,0.9
							c-1,0-1.9-0.1-2.8-0.2c-0.9-0.1-1.7-0.2-2.5-0.4c-0.7-0.2-1.4-0.5-2-0.8v-3.5c1,0.4,2.2,0.8,3.5,1.1c1.3,0.4,2.7,0.5,4.1,0.5
							c1.2,0,2.2-0.2,3.1-0.5c0.8-0.3,1.4-0.8,1.9-1.4c0.4-0.6,0.6-1.3,0.6-2.2c0-0.8-0.2-1.5-0.6-2.1c-0.4-0.6-1.1-1.1-2-1.6
							c-0.9-0.5-2-1-3.5-1.6c-1-0.4-1.9-0.8-2.7-1.2c-0.8-0.5-1.5-1-2.1-1.6c-0.6-0.6-1.1-1.3-1.4-2.1c-0.3-0.8-0.5-1.8-0.5-2.8
							c0-1.5,0.4-2.7,1.1-3.8c0.7-1,1.7-1.8,3-2.4c1.3-0.5,2.8-0.8,4.5-0.8c1.4,0,2.7,0.1,3.9,0.4c1.2,0.3,2.4,0.6,3.4,1.1
							l-1.2,3.1c-1-0.4-2-0.8-3.1-1.1c-1-0.3-2.1-0.4-3.3-0.4c-1,0-1.9,0.2-2.6,0.5c-0.7,0.3-1.3,0.7-1.6,1.3
							c-0.4,0.5-0.5,1.2-0.5,2c0,0.9,0.2,1.6,0.6,2.1c0.4,0.6,1,1.1,1.8,1.6c0.9,0.4,2,0.9,3.3,1.4c1.5,0.6,2.7,1.2,3.8,1.9
							c1.1,0.6,1.9,1.4,2.5,2.3C48.8-52.1,49.1-51,49.1-49.6z"/>
					</g>
				</g>
			</g>
			<g>
				<g transform="translate(181.641412, 204.981301)">
					<g>
						<path class="st0" d="M71.1-55.7c0,2-0.3,3.9-0.8,5.6C69.8-48.5,69-47,68-45.8c-1,1.2-2.3,2.1-3.8,2.8c-1.5,0.6-3.3,1-5.3,1
							c-2.1,0-3.9-0.3-5.4-1c-1.5-0.6-2.8-1.6-3.8-2.8c-1-1.2-1.8-2.7-2.3-4.3c-0.5-1.7-0.8-3.6-0.8-5.6c0-2.7,0.4-5.1,1.3-7.1
							c0.9-2,2.3-3.6,4.1-4.8c1.8-1.1,4.1-1.7,6.9-1.7c2.7,0,4.9,0.6,6.7,1.7c1.8,1.1,3.2,2.7,4.1,4.7
							C70.7-60.9,71.1-58.5,71.1-55.7z M50.5-55.7c0,2.2,0.3,4,0.9,5.6c0.6,1.5,1.5,2.8,2.7,3.6c1.2,0.8,2.8,1.2,4.8,1.2
							c1.9,0,3.5-0.4,4.7-1.2c1.2-0.9,2.2-2.1,2.7-3.6c0.6-1.6,0.9-3.4,0.9-5.6c0-3.2-0.7-5.8-2-7.6c-1.3-1.8-3.4-2.8-6.3-2.8
							c-1.9,0-3.5,0.4-4.8,1.2c-1.2,0.8-2.2,2-2.8,3.6C50.8-59.7,50.5-57.9,50.5-55.7z"/>
					</g>
				</g>
			</g>
			<g>
				<g transform="translate(192.197316, 204.981301)">
					<g>
						<path class="st0" d="M71.2-42.4h-3.7v-26.5h14.8v3.2H71.2v9h10.4v3.2H71.2V-42.4z"/>
					</g>
				</g>
			</g>
			<g>
				<g transform="translate(199.402664, 204.981301)">
					<g>
						<path class="st0" d="M89.4-42.4h-3.7v-23.3h-8v-3.2h19.8v3.2h-8V-42.4z"/>
					</g>
				</g>
			</g>
			<g>
				<g transform="translate(207.045875, 204.981301)">
					<g>
						<path class="st0" d="M125.6-68.9l-7,26.5h-3.9l-4.8-16.8c-0.2-0.4-0.3-0.9-0.4-1.4c-0.1-0.5-0.2-1-0.4-1.6
							c-0.1-0.5-0.2-1-0.3-1.4c-0.1-0.4-0.2-0.7-0.2-0.9c0,0.2-0.1,0.5-0.2,0.9c-0.1,0.4-0.2,0.8-0.3,1.3c-0.1,0.5-0.2,1-0.4,1.6
							c-0.1,0.5-0.3,1-0.4,1.5l-4.7,16.8h-3.9l-7-26.5h3.8l4.1,16c0.1,0.5,0.2,1.1,0.4,1.6c0.1,0.5,0.3,1.1,0.4,1.6
							c0.1,0.5,0.2,1.1,0.3,1.6c0.1,0.5,0.2,1,0.2,1.4c0.1-0.5,0.1-1,0.2-1.5c0.1-0.5,0.2-1.1,0.4-1.6c0.1-0.6,0.2-1.1,0.4-1.6
							c0.1-0.6,0.2-1.1,0.4-1.6l4.5-16h3.7l4.7,16.1c0.1,0.5,0.3,1,0.4,1.6c0.1,0.5,0.3,1.1,0.4,1.6c0.1,0.5,0.2,1.1,0.3,1.6
							c0.1,0.5,0.2,1,0.3,1.4c0.1-0.6,0.2-1.2,0.3-1.9c0.1-0.7,0.3-1.4,0.4-2.2c0.2-0.8,0.3-1.5,0.5-2.2l4.1-16H125.6z"/>
					</g>
				</g>
			</g>
			<g>
				<g transform="translate(219.575313, 204.981301)">
					<g>
						<path class="st0" d="M134.6-42.4l-2.9-7.9h-10.3l-2.9,7.9h-3.9L124.7-69h3.8l10,26.6H134.6z M130.7-53.5l-2.8-7.8
							c-0.1-0.3-0.2-0.7-0.4-1.2s-0.4-1.1-0.5-1.6c-0.2-0.6-0.3-1-0.4-1.4c-0.2,0.5-0.3,1-0.4,1.6c-0.2,0.5-0.3,1-0.4,1.5
							c-0.2,0.5-0.3,0.9-0.4,1.2l-2.9,7.8H130.7z"/>
					</g>
				</g>
			</g>
			<g>
				<g transform="translate(228.37345, 204.981301)">
					<g>
						<path class="st0" d="M141.7-68.9c2.3,0,4.1,0.3,5.5,0.8c1.4,0.5,2.5,1.4,3.3,2.5c0.7,1.1,1.1,2.5,1.1,4.2
							c0,1.3-0.3,2.5-0.8,3.4c-0.5,0.9-1.1,1.7-1.9,2.3c-0.8,0.6-1.7,1.1-2.6,1.4l7.4,11.8h-4.2L143-53.3h-4.9v10.8h-3.7v-26.5
							H141.7z M141.5-65.7h-3.3v9.4h3.6c2.1,0,3.6-0.4,4.5-1.2c1-0.8,1.5-2,1.5-3.7c0-1.7-0.5-2.8-1.6-3.5
							C145.2-65.4,143.6-65.7,141.5-65.7z"/>
					</g>
				</g>
			</g>
			<g>
				<g transform="translate(236.924097, 204.981301)">
					<g>
						<path class="st0" d="M165.1-42.4h-14.8v-26.5h14.8v3.2H154v7.8h10.5v3.2H154v9h11.1V-42.4z"/>
					</g>
				</g>
			</g>
		</g>
		<g>
			<g>
				<g transform="translate(1.044099, 32.20354)">
					<g>
						<path class="st1" d="M210.5,95.4c-1.5,0-2.8-0.5-3.7-1.5c-1-1-1.4-2.3-1.4-3.8V54.4c0-1.5,0.5-2.7,1.4-3.7
							c1-1,2.2-1.5,3.7-1.5c1.5,0,2.7,0.5,3.7,1.5c1,1,1.5,2.2,1.5,3.7v8.1l-0.6-5.8c0.6-1.4,1.4-2.6,2.4-3.7c1-1.1,2.2-2,3.4-2.7
							c1.3-0.7,2.6-1.3,4.1-1.6c1.4-0.3,2.9-0.5,4.3-0.5c1.7,0,3.2,0.5,4.3,1.5c1.2,1,1.8,2.1,1.8,3.4c0,1.9-0.5,3.3-1.5,4.1
							c-1,0.8-2,1.2-3.2,1.2c-1.1,0-2.1-0.2-3-0.6c-0.9-0.4-1.9-0.6-3.1-0.6c-1.1,0-2.1,0.3-3.2,0.8c-1.1,0.5-2,1.3-2.9,2.3
							c-0.9,1-1.6,2.3-2.1,3.8c-0.5,1.5-0.8,3.3-0.8,5.4v20.5c0,1.5-0.5,2.8-1.5,3.8C213.2,94.9,212,95.4,210.5,95.4z"/>
					</g>
				</g>
			</g>
			<g>
				<g transform="translate(14.118775, 32.20354)">
					<g>
						<path class="st1" d="M248.4,48.2c3.3,0,6.2,0.4,8.6,1.1c2.5,0.7,4.4,1.7,5.7,2.9c1.4,1.2,2,2.7,2,4.4c0,1.2-0.3,2.3-1,3.3
							c-0.7,1-1.7,1.5-3,1.5c-0.9,0-1.7-0.1-2.3-0.4c-0.6-0.3-1.1-0.6-1.6-1c-0.5-0.4-1-0.8-1.6-1.1c-0.6-0.3-1.4-0.6-2.6-0.8
							c-1.2-0.2-2.1-0.3-2.6-0.3c-3,0-5.5,0.6-7.5,1.9c-2,1.3-3.6,3-4.7,5.1c-1.1,2.2-1.6,4.7-1.6,7.5c0,2.8,0.6,5.2,1.7,7.4
							c1.1,2.2,2.7,3.9,4.7,5.2c2,1.3,4.3,1.9,6.9,1.9c1.4,0,2.7-0.1,3.7-0.3c1-0.2,1.9-0.4,2.6-0.8c0.8-0.5,1.5-1,2.1-1.5
							c0.6-0.5,1.6-0.8,2.9-0.8c1.5,0,2.7,0.5,3.4,1.4c0.8,0.9,1.2,2.1,1.2,3.4c0,1.4-0.8,2.8-2.4,4c-1.6,1.2-3.7,2.2-6.3,2.9
							c-2.6,0.7-5.5,1.1-8.5,1.1c-4.5,0-8.5-1-11.8-3.2c-3.4-2.1-5.9-5-7.8-8.6c-1.8-3.6-2.7-7.7-2.7-12.2c0-4.7,1-8.9,2.9-12.5
							c1.9-3.6,4.6-6.4,8-8.5C240.1,49.3,244,48.2,248.4,48.2z"/>
					</g>
				</g>
			</g>
			<g>
				<g transform="translate(30.620804, 32.20354)">
					<g>
						<path class="st1" d="M280.7,48.2c4.1,0,7.3,0.9,9.5,2.7c2.2,1.8,3.6,4.2,4.4,7.2c0.8,3,1.2,6.2,1.2,9.9v22.1
							c0,1.5-0.5,2.8-1.5,3.8c-1,1-2.2,1.5-3.7,1.5c-1.5,0-2.8-0.5-3.7-1.5c-1-1-1.4-2.3-1.4-3.8V68c0-1.9-0.2-3.6-0.7-5.1
							c-0.5-1.5-1.3-2.7-2.5-3.7c-1.2-0.9-2.9-1.4-5.2-1.4c-2.2,0-4.1,0.5-5.6,1.4c-1.5,0.9-2.7,2.1-3.5,3.7
							c-0.8,1.5-1.1,3.2-1.1,5.1v22.1c0,1.5-0.5,2.8-1.5,3.8c-1,1-2.2,1.5-3.7,1.5c-1.5,0-2.8-0.5-3.7-1.5c-1-1-1.4-2.3-1.4-3.8
							V36.7c0-1.5,0.5-2.7,1.4-3.7c1-1,2.2-1.5,3.7-1.5c1.5,0,2.7,0.5,3.7,1.5c1,1,1.5,2.2,1.5,3.7v21.5l-1.3-0.3
							c0.5-1,1.3-2,2.2-3.2c0.9-1.1,2.1-2.2,3.4-3.2c1.3-1,2.8-1.8,4.4-2.4C277,48.6,278.8,48.2,280.7,48.2z"/>
					</g>
				</g>
			</g>
			<g>
				<g transform="translate(49.21731, 32.20354)">
					<g>
						<path class="st1" d="M298.2,90.1c0,1.5-0.5,2.8-1.5,3.8c-1,1-2.2,1.5-3.7,1.5c-1.5,0-2.8-0.5-3.7-1.5c-1-1-1.4-2.3-1.4-3.8
							V54.4c0-1.5,0.5-2.7,1.4-3.7c1-1,2.2-1.5,3.7-1.5c1.5,0,2.7,0.5,3.7,1.5c1,1,1.5,2.2,1.5,3.7V90.1z M292.9,43.5
							c-2,0-3.3-0.3-4.1-0.9c-0.8-0.6-1.2-1.7-1.2-3.4v-1.7c0-1.7,0.4-2.8,1.3-3.4c0.9-0.6,2.3-0.9,4.1-0.9c2,0,3.4,0.3,4.2,0.9
							c0.8,0.6,1.2,1.7,1.2,3.4v1.7c0,1.7-0.4,2.8-1.3,3.4S294.9,43.5,292.9,43.5z"/>
					</g>
				</g>
			</g>
			<g>
				<g transform="translate(56.706686, 32.20354)">
					<g>
						<path class="st1" d="M339.3,31.4c1.5,0,2.7,0.5,3.7,1.5c1,1,1.5,2.2,1.5,3.8v53.4c0,1.5-0.5,2.8-1.5,3.8
							c-1,1-2.2,1.5-3.7,1.5c-1.5,0-2.8-0.5-3.7-1.5c-1-1-1.4-2.3-1.4-3.8v-4.2l1.9,0.8c0,0.7-0.4,1.7-1.2,2.7
							c-0.8,1.1-1.9,2.1-3.3,3.2c-1.4,1.1-3,1.9-4.9,2.6c-1.9,0.7-3.9,1.1-6.1,1.1c-4,0-7.6-1-10.8-3.1c-3.2-2-5.8-4.9-7.7-8.5
							c-1.9-3.6-2.8-7.7-2.8-12.4c0-4.7,0.9-8.9,2.8-12.5c1.9-3.6,4.4-6.4,7.6-8.5c3.2-2,6.7-3.1,10.6-3.1c2.5,0,4.7,0.4,6.8,1.1
							c2.1,0.7,3.9,1.7,5.4,2.9c1.5,1.1,2.7,2.3,3.5,3.5c0.9,1.2,1.3,2.2,1.3,3l-3.1,1.1V36.7c0-1.5,0.5-2.7,1.4-3.7
							C336.5,31.9,337.7,31.4,339.3,31.4z M321.8,86.7c2.6,0,4.8-0.6,6.7-1.9c1.9-1.3,3.4-3,4.4-5.2c1.1-2.2,1.6-4.7,1.6-7.4
							c0-2.8-0.5-5.3-1.6-7.5c-1.1-2.2-2.5-3.9-4.4-5.2c-1.9-1.3-4.1-1.9-6.7-1.9c-2.5,0-4.7,0.6-6.6,1.9c-1.9,1.3-3.4,3-4.5,5.2
							c-1.1,2.2-1.6,4.7-1.6,7.5c0,2.7,0.5,5.2,1.6,7.4c1.1,2.2,2.6,3.9,4.5,5.2C317.1,86.1,319.3,86.7,321.8,86.7z"/>
					</g>
				</g>
			</g>
		</g>
	</g>
</g>
</svg>
