<?xml version="1.0" encoding="utf-8"?>
<!-- Generator: Adobe Illustrator 29.8.2, SVG Export Plug-In . SVG Version: 9.03 Build 0)  -->
<svg version="1.0" xmlns="http://www.w3.org/2000/svg" xmlns:xlink="http://www.w3.org/1999/xlink" x="0px" y="0px"
	 viewBox="0 0 500 500" style="enable-background:new 0 0 500 500;" xml:space="preserve">
<style type="text/css">
	.st0{fill:#FFFFFF;}
	.st1{clip-path:url(#SVGID_00000028305268546155545750000012086265036567202478_);}
	.st2{clip-path:url(#SVGID_00000173123169739259088530000017876064842608330686_);}
	.st3{clip-path:url(#SVGID_00000028285745376470931310000005857532434771620246_);}
	.st4{clip-path:url(#SVGID_00000118365782730117188320000012026511348054692520_);}
	.st5{clip-path:url(#SVGID_00000020381261760985673330000015611734700705853338_);}
	.st6{fill:#FB4C00;}
	.st7{clip-path:url(#SVGID_00000010994114197240430130000002059470482753196944_);}
	.st8{clip-path:url(#SVGID_00000120535662873094443130000008307642670111471489_);}
	.st9{clip-path:url(#SVGID_00000024680805800152299880000012775792834180929211_);}
	.st10{clip-path:url(#SVGID_00000027602510755219704350000005500617671486321047_);}
	.st11{clip-path:url(#SVGID_00000003787360045002377470000012900449295887438226_);}
	.st12{clip-path:url(#SVGID_00000032638522419855301330000002553055604602629281_);}
	.st13{clip-path:url(#SVGID_00000072997057142709126800000016099392883051981451_);}
	.st14{clip-path:url(#SVGID_00000007408786493970352450000013362531675887416232_);}
	.st15{clip-path:url(#SVGID_00000167396052950464753100000006994491870631058103_);}
	.st16{clip-path:url(#SVGID_00000162347650317771191130000006619691846562729348_);}
	.st17{clip-path:url(#SVGID_00000005252086738292287090000001990874007559469216_);}
	.st18{clip-path:url(#SVGID_00000153671256240694831570000009293335371436301706_);}
	.st19{clip-path:url(#SVGID_00000149354342750285511610000002666716377480449440_);}
	.st20{clip-path:url(#SVGID_00000171703361591079755790000012278092775815134112_);}
	.st21{clip-path:url(#SVGID_00000180355822531085900350000002473945482495930790_);}
	.st22{clip-path:url(#SVGID_00000001647360485120594240000011007960888671541942_);}
	.st23{clip-path:url(#SVGID_00000069391265520553133780000014010212595769133492_);}
	.st24{clip-path:url(#SVGID_00000111164867751387722530000011212081342550652825_);}
	.st25{clip-path:url(#SVGID_00000168833220900505811760000005199705198320314779_);}
	.st26{clip-path:url(#SVGID_00000000942962084034409380000012629668534112430779_);}
	.st27{clip-path:url(#SVGID_00000090255320435559473100000005145324882832631942_);}
	.st28{clip-path:url(#SVGID_00000085946634337344498370000001938131886317826745_);}
	.st29{clip-path:url(#SVGID_00000028321432872825257430000015458967195563675266_);}
	.st30{clip-path:url(#SVGID_00000138552210444644868220000000691159661670774171_);}
	.st31{clip-path:url(#SVGID_00000028289615956327141850000006519059692268917395_);}
</style>
<g id="Layer_2">
	<rect x="0.4" y="-0.6" width="499.4" height="234.9"/>
</g>
<g id="Layer_1">
	<g>
		<g>
			<g>
				<path class="st0" d="M141.2,166.5c-29.3,0-53.2-23.9-53.2-53.2S111.9,60,141.2,60s53.2,23.9,53.2,53.2S170.6,166.5,141.2,166.5z
					 M141.2,73c-22.2,0-40.2,18-40.2,40.2s18,40.2,40.2,40.2s40.2-18,40.2-40.2S163.4,73,141.2,73z"/>
			</g>
			<g>
				<defs>
					<rect id="SVGID_1_" x="176.3" y="89.8" width="8.7" height="8.7"/>
				</defs>
				<clipPath id="SVGID_00000156552091868421658750000009391363297692984472_">
					<use xlink:href="#SVGID_1_"  style="overflow:visible;"/>
				</clipPath>
				<g style="clip-path:url(#SVGID_00000156552091868421658750000009391363297692984472_);">
					<g>
						<defs>
							<circle id="SVGID_00000183245176325504884610000005724777980605631902_" cx="180.6" cy="94.1" r="4.4"/>
						</defs>
						<clipPath id="SVGID_00000021837000178437050040000005925504801940568215_">
							<use xlink:href="#SVGID_00000183245176325504884610000005724777980605631902_"  style="overflow:visible;"/>
						</clipPath>
						<g style="clip-path:url(#SVGID_00000021837000178437050040000005925504801940568215_);">
							<g transform="matrix(1, 0, 0, 1, 160, 177)">
								<g>
									<defs>
										<rect id="SVGID_00000012440165871989987820000003916573627289729172_" x="16.1" y="-89.1" width="9.9" height="12.4"/>
									</defs>
									<clipPath id="SVGID_00000152963733984729065040000007242888156440953217_">
										<use xlink:href="#SVGID_00000012440165871989987820000003916573627289729172_"  style="overflow:visible;"/>
									</clipPath>
									<g style="clip-path:url(#SVGID_00000152963733984729065040000007242888156440953217_);">
										<g>
											<defs>
												<rect id="SVGID_00000054260151679705347400000014813609308432258962_" x="16.3" y="-87.2" width="8.7" height="8.7"/>
											</defs>
											<clipPath id="SVGID_00000078728274170045052750000007187136095360125595_">
												<use xlink:href="#SVGID_00000054260151679705347400000014813609308432258962_"  style="overflow:visible;"/>
											</clipPath>
											<g style="clip-path:url(#SVGID_00000078728274170045052750000007187136095360125595_);">
												<g>
													<defs>
														<circle id="SVGID_00000007404725249546423130000001710064836924482483_" cx="20.6" cy="-82.9" r="4.4"/>
													</defs>
													<clipPath id="SVGID_00000049920285245528890610000010950852240258091703_">
														<use xlink:href="#SVGID_00000007404725249546423130000001710064836924482483_"  style="overflow:visible;"/>
													</clipPath>
													<g style="clip-path:url(#SVGID_00000049920285245528890610000010950852240258091703_);">
														<path class="st6" d="M16.3-87.2H25v8.7h-8.7V-87.2z"/>
													</g>
												</g>
											</g>
										</g>
									</g>
								</g>
							</g>
						</g>
					</g>
				</g>
			</g>
			<g>
				<defs>
					<rect id="SVGID_00000031197303508258790470000003069937400429579691_" x="159.5" y="77.7" width="16.8" height="16.8"/>
				</defs>
				<clipPath id="SVGID_00000137846377367055353240000013044524627566128283_">
					<use xlink:href="#SVGID_00000031197303508258790470000003069937400429579691_"  style="overflow:visible;"/>
				</clipPath>
				<g style="clip-path:url(#SVGID_00000137846377367055353240000013044524627566128283_);">
					<g>
						<defs>
							<circle id="SVGID_00000034082322064128424800000006529239027441579195_" cx="167.9" cy="86" r="8.4"/>
						</defs>
						<clipPath id="SVGID_00000172434155112452171880000015692335398438400149_">
							<use xlink:href="#SVGID_00000034082322064128424800000006529239027441579195_"  style="overflow:visible;"/>
						</clipPath>
						<g style="clip-path:url(#SVGID_00000172434155112452171880000015692335398438400149_);">
							<g transform="matrix(1, 0, 0, 1, 153, 172)">
								<g>
									<defs>
										<rect id="SVGID_00000157279757973769504030000013346336056666938754_" x="5.8" y="-96.5" width="19.8" height="19.8"/>
									</defs>
									<clipPath id="SVGID_00000047022999522485205860000000435951885103297665_">
										<use xlink:href="#SVGID_00000157279757973769504030000013346336056666938754_"  style="overflow:visible;"/>
									</clipPath>
									<g style="clip-path:url(#SVGID_00000047022999522485205860000000435951885103297665_);">
										<g>
											<defs>
												<rect id="SVGID_00000070108160980284741440000012625190046339589527_" x="6.5" y="-94.3" width="16.8" height="16.8"/>
											</defs>
											<clipPath id="SVGID_00000084531729629137179250000009029059503758344850_">
												<use xlink:href="#SVGID_00000070108160980284741440000012625190046339589527_"  style="overflow:visible;"/>
											</clipPath>
											<g style="clip-path:url(#SVGID_00000084531729629137179250000009029059503758344850_);">
												<g>
													<defs>
														<circle id="SVGID_00000124882607823100289310000004482218404005532860_" cx="14.9" cy="-86" r="8.4"/>
													</defs>
													<clipPath id="SVGID_00000111881943514782184790000014450671540520131767_">
														<use xlink:href="#SVGID_00000124882607823100289310000004482218404005532860_"  style="overflow:visible;"/>
													</clipPath>
													<g style="clip-path:url(#SVGID_00000111881943514782184790000014450671540520131767_);">
														<path class="st0" d="M6.5-94.3h16.8v16.8H6.5V-94.3z"/>
													</g>
												</g>
											</g>
										</g>
									</g>
								</g>
							</g>
						</g>
					</g>
				</g>
			</g>
			<g>
				<defs>
					<rect id="SVGID_00000072979235477136025800000002399531307873382800_" x="162" y="79.8" width="12.4" height="12.4"/>
				</defs>
				<clipPath id="SVGID_00000127765616469114565400000001954245633870192807_">
					<use xlink:href="#SVGID_00000072979235477136025800000002399531307873382800_"  style="overflow:visible;"/>
				</clipPath>
				<g style="clip-path:url(#SVGID_00000127765616469114565400000001954245633870192807_);">
					<g>
						<defs>
							<circle id="SVGID_00000103262258531952294870000012367012530826531220_" cx="168.2" cy="86" r="6.2"/>
						</defs>
						<clipPath id="SVGID_00000078020695479076708290000013910116790954153658_">
							<use xlink:href="#SVGID_00000103262258531952294870000012367012530826531220_"  style="overflow:visible;"/>
						</clipPath>
						<g style="clip-path:url(#SVGID_00000078020695479076708290000013910116790954153658_);">
							<g transform="matrix(1, 0, 0, 1, 154, 173)">
								<g>
									<defs>
										<rect id="SVGID_00000021113732504054585680000014919353446636110981_" x="7.3" y="-95" width="14.9" height="14.9"/>
									</defs>
									<clipPath id="SVGID_00000083808814101400225540000009290036557546674598_">
										<use xlink:href="#SVGID_00000021113732504054585680000014919353446636110981_"  style="overflow:visible;"/>
									</clipPath>
									<g style="clip-path:url(#SVGID_00000083808814101400225540000009290036557546674598_);">
										<g>
											<defs>
												<rect id="SVGID_00000095300235161424805940000005604114060923576201_" x="8" y="-93.2" width="12.4" height="12.4"/>
											</defs>
											<clipPath id="SVGID_00000026138919981423865280000007369133776108360072_">
												<use xlink:href="#SVGID_00000095300235161424805940000005604114060923576201_"  style="overflow:visible;"/>
											</clipPath>
											<g style="clip-path:url(#SVGID_00000026138919981423865280000007369133776108360072_);">
												<g>
													<defs>
														<circle id="SVGID_00000147919759745347388480000011701114256748806576_" cx="14.2" cy="-87" r="6.2"/>
													</defs>
													<clipPath id="SVGID_00000153699315079839110500000003861835692136153987_">
														<use xlink:href="#SVGID_00000147919759745347388480000011701114256748806576_"  style="overflow:visible;"/>
													</clipPath>
													<g style="clip-path:url(#SVGID_00000153699315079839110500000003861835692136153987_);">
														<path class="st6" d="M8-93.2h12.4v12.4H8V-93.2z"/>
													</g>
												</g>
											</g>
										</g>
									</g>
								</g>
							</g>
						</g>
					</g>
				</g>
			</g>
		</g>
		<g>
			<g>
				<g>
					<g transform="translate(174.118776, 204.981301)">
						<g>
							<path class="st0" d="M49.1-49.6c0,1.6-0.4,2.9-1.2,4.1c-0.8,1.1-1.9,1.9-3.3,2.5c-1.4,0.6-3.1,0.9-5,0.9
								c-1,0-1.9-0.1-2.8-0.2c-0.9-0.1-1.7-0.2-2.5-0.4c-0.7-0.2-1.4-0.5-2-0.8v-3.5c1,0.4,2.2,0.8,3.5,1.1c1.3,0.4,2.7,0.5,4.1,0.5
								c1.2,0,2.2-0.2,3.1-0.5c0.8-0.3,1.4-0.8,1.9-1.4c0.4-0.6,0.6-1.3,0.6-2.2c0-0.8-0.2-1.5-0.6-2.1c-0.4-0.6-1.1-1.1-2-1.6
								c-0.9-0.5-2-1-3.5-1.6c-1-0.4-1.9-0.8-2.7-1.2c-0.8-0.5-1.5-1-2.1-1.6c-0.6-0.6-1.1-1.3-1.4-2.1c-0.3-0.8-0.5-1.8-0.5-2.8
								c0-1.5,0.4-2.7,1.1-3.8c0.7-1,1.7-1.8,3-2.4c1.3-0.5,2.8-0.8,4.5-0.8c1.4,0,2.7,0.1,3.9,0.4c1.2,0.3,2.4,0.6,3.4,1.1
								l-1.2,3.1c-1-0.4-2-0.8-3.1-1.1c-1-0.3-2.1-0.4-3.3-0.4c-1,0-1.9,0.2-2.6,0.5c-0.7,0.3-1.3,0.7-1.6,1.3
								c-0.4,0.5-0.5,1.2-0.5,2c0,0.9,0.2,1.6,0.6,2.1c0.4,0.6,1,1.1,1.8,1.6c0.9,0.4,2,0.9,3.3,1.4c1.5,0.6,2.7,1.2,3.8,1.9
								c1.1,0.6,1.9,1.4,2.5,2.3C48.8-52.1,49.1-51,49.1-49.6z"/>
						</g>
					</g>
				</g>
				<g>
					<g transform="translate(181.641412, 204.981301)">
						<g>
							<path class="st0" d="M71.1-55.7c0,2-0.3,3.9-0.8,5.6C69.8-48.5,69-47,68-45.8c-1,1.2-2.3,2.1-3.8,2.8c-1.5,0.6-3.3,1-5.3,1
								c-2.1,0-3.9-0.3-5.4-1c-1.5-0.6-2.8-1.6-3.8-2.8c-1-1.2-1.8-2.7-2.3-4.3c-0.5-1.7-0.8-3.6-0.8-5.6c0-2.7,0.4-5.1,1.3-7.1
								c0.9-2,2.3-3.6,4.1-4.8c1.8-1.1,4.1-1.7,6.9-1.7c2.7,0,4.9,0.6,6.7,1.7c1.8,1.1,3.2,2.7,4.1,4.7
								C70.7-60.9,71.1-58.5,71.1-55.7z M50.5-55.7c0,2.2,0.3,4,0.9,5.6c0.6,1.5,1.5,2.8,2.7,3.6c1.2,0.8,2.8,1.2,4.8,1.2
								c1.9,0,3.5-0.4,4.7-1.2c1.2-0.9,2.2-2.1,2.7-3.6c0.6-1.6,0.9-3.4,0.9-5.6c0-3.2-0.7-5.8-2-7.6c-1.3-1.8-3.4-2.8-6.3-2.8
								c-1.9,0-3.5,0.4-4.8,1.2c-1.2,0.8-2.2,2-2.8,3.6C50.8-59.7,50.5-57.9,50.5-55.7z"/>
						</g>
					</g>
				</g>
				<g>
					<g transform="translate(192.197316, 204.981301)">
						<g>
							<path class="st0" d="M71.2-42.4h-3.7v-26.5h14.8v3.2H71.2v9h10.4v3.2H71.2V-42.4z"/>
						</g>
					</g>
				</g>
				<g>
					<g transform="translate(199.402664, 204.981301)">
						<g>
							<path class="st0" d="M89.4-42.4h-3.7v-23.3h-8v-3.2h19.8v3.2h-8V-42.4z"/>
						</g>
					</g>
				</g>
				<g>
					<g transform="translate(207.045875, 204.981301)">
						<g>
							<path class="st0" d="M125.6-68.9l-7,26.5h-3.9l-4.8-16.8c-0.2-0.4-0.3-0.9-0.4-1.4c-0.1-0.5-0.2-1-0.4-1.6
								c-0.1-0.5-0.2-1-0.3-1.4c-0.1-0.4-0.2-0.7-0.2-0.9c0,0.2-0.1,0.5-0.2,0.9c-0.1,0.4-0.2,0.8-0.3,1.3c-0.1,0.5-0.2,1-0.4,1.6
								c-0.1,0.5-0.3,1-0.4,1.5l-4.7,16.8h-3.9l-7-26.5h3.8l4.1,16c0.1,0.5,0.2,1.1,0.4,1.6c0.1,0.5,0.3,1.1,0.4,1.6
								c0.1,0.5,0.2,1.1,0.3,1.6c0.1,0.5,0.2,1,0.2,1.4c0.1-0.5,0.1-1,0.2-1.5c0.1-0.5,0.2-1.1,0.4-1.6c0.1-0.6,0.2-1.1,0.4-1.6
								c0.1-0.6,0.2-1.1,0.4-1.6l4.5-16h3.7l4.7,16.1c0.1,0.5,0.3,1,0.4,1.6c0.1,0.5,0.3,1.1,0.4,1.6c0.1,0.5,0.2,1.1,0.3,1.6
								c0.1,0.5,0.2,1,0.3,1.4c0.1-0.6,0.2-1.2,0.3-1.9c0.1-0.7,0.3-1.4,0.4-2.2c0.2-0.8,0.3-1.5,0.5-2.2l4.1-16H125.6z"/>
						</g>
					</g>
				</g>
				<g>
					<g transform="translate(219.575313, 204.981301)">
						<g>
							<path class="st0" d="M134.6-42.4l-2.9-7.9h-10.3l-2.9,7.9h-3.9L124.7-69h3.8l10,26.6H134.6z M130.7-53.5l-2.8-7.8
								c-0.1-0.3-0.2-0.7-0.4-1.2s-0.4-1.1-0.5-1.6c-0.2-0.6-0.3-1-0.4-1.4c-0.2,0.5-0.3,1-0.4,1.6c-0.2,0.5-0.3,1-0.4,1.5
								c-0.2,0.5-0.3,0.9-0.4,1.2l-2.9,7.8H130.7z"/>
						</g>
					</g>
				</g>
				<g>
					<g transform="translate(228.37345, 204.981301)">
						<g>
							<path class="st0" d="M141.7-68.9c2.3,0,4.1,0.3,5.5,0.8c1.4,0.5,2.5,1.4,3.3,2.5c0.7,1.1,1.1,2.5,1.1,4.2
								c0,1.3-0.3,2.5-0.8,3.4c-0.5,0.9-1.1,1.7-1.9,2.3c-0.8,0.6-1.7,1.1-2.6,1.4l7.4,11.8h-4.2L143-53.3h-4.9v10.8h-3.7v-26.5
								H141.7z M141.5-65.7h-3.3v9.4h3.6c2.1,0,3.6-0.4,4.5-1.2c1-0.8,1.5-2,1.5-3.7c0-1.7-0.5-2.8-1.6-3.5
								C145.2-65.4,143.6-65.7,141.5-65.7z"/>
						</g>
					</g>
				</g>
				<g>
					<g transform="translate(236.924097, 204.981301)">
						<g>
							<path class="st0" d="M165.1-42.4h-14.8v-26.5h14.8v3.2H154v7.8h10.5v3.2H154v9h11.1V-42.4z"/>
						</g>
					</g>
				</g>
			</g>
			<g>
				<g>
					<g transform="translate(1.044099, 32.20354)">
						<g>
							<path class="st6" d="M210.5,95.4c-1.5,0-2.8-0.5-3.7-1.5c-1-1-1.4-2.3-1.4-3.8V54.4c0-1.5,0.5-2.7,1.4-3.7
								c1-1,2.2-1.5,3.7-1.5c1.5,0,2.7,0.5,3.7,1.5c1,1,1.5,2.2,1.5,3.7v8.1l-0.6-5.8c0.6-1.4,1.4-2.6,2.4-3.7c1-1.1,2.2-2,3.4-2.7
								c1.3-0.7,2.6-1.3,4.1-1.6c1.4-0.3,2.9-0.5,4.3-0.5c1.7,0,3.2,0.5,4.3,1.5c1.2,1,1.8,2.1,1.8,3.4c0,1.9-0.5,3.3-1.5,4.1
								c-1,0.8-2,1.2-3.2,1.2c-1.1,0-2.1-0.2-3-0.6c-0.9-0.4-1.9-0.6-3.1-0.6c-1.1,0-2.1,0.3-3.2,0.8c-1.1,0.5-2,1.3-2.9,2.3
								c-0.9,1-1.6,2.3-2.1,3.8c-0.5,1.5-0.8,3.3-0.8,5.4v20.5c0,1.5-0.5,2.8-1.5,3.8C213.2,94.9,212,95.4,210.5,95.4z"/>
						</g>
					</g>
				</g>
				<g>
					<g transform="translate(14.118775, 32.20354)">
						<g>
							<path class="st6" d="M248.4,48.2c3.3,0,6.2,0.4,8.6,1.1c2.5,0.7,4.4,1.7,5.7,2.9c1.4,1.2,2,2.7,2,4.4c0,1.2-0.3,2.3-1,3.3
								c-0.7,1-1.7,1.5-3,1.5c-0.9,0-1.7-0.1-2.3-0.4c-0.6-0.3-1.1-0.6-1.6-1c-0.5-0.4-1-0.8-1.6-1.1c-0.6-0.3-1.4-0.6-2.6-0.8
								c-1.2-0.2-2.1-0.3-2.6-0.3c-3,0-5.5,0.6-7.5,1.9c-2,1.3-3.6,3-4.7,5.1c-1.1,2.2-1.6,4.7-1.6,7.5c0,2.8,0.6,5.2,1.7,7.4
								c1.1,2.2,2.7,3.9,4.7,5.2c2,1.3,4.3,1.9,6.9,1.9c1.4,0,2.7-0.1,3.7-0.3c1-0.2,1.9-0.4,2.6-0.8c0.8-0.5,1.5-1,2.1-1.5
								c0.6-0.5,1.6-0.8,2.9-0.8c1.5,0,2.7,0.5,3.4,1.4c0.8,0.9,1.2,2.1,1.2,3.4c0,1.4-0.8,2.8-2.4,4c-1.6,1.2-3.7,2.2-6.3,2.9
								c-2.6,0.7-5.5,1.1-8.5,1.1c-4.5,0-8.5-1-11.8-3.2c-3.4-2.1-5.9-5-7.8-8.6c-1.8-3.6-2.7-7.7-2.7-12.2c0-4.7,1-8.9,2.9-12.5
								c1.9-3.6,4.6-6.4,8-8.5C240.1,49.3,244,48.2,248.4,48.2z"/>
						</g>
					</g>
				</g>
				<g>
					<g transform="translate(30.620804, 32.20354)">
						<g>
							<path class="st6" d="M280.7,48.2c4.1,0,7.3,0.9,9.5,2.7c2.2,1.8,3.6,4.2,4.4,7.2c0.8,3,1.2,6.2,1.2,9.9v22.1
								c0,1.5-0.5,2.8-1.5,3.8c-1,1-2.2,1.5-3.7,1.5c-1.5,0-2.8-0.5-3.7-1.5c-1-1-1.4-2.3-1.4-3.8V68c0-1.9-0.2-3.6-0.7-5.1
								c-0.5-1.5-1.3-2.7-2.5-3.7c-1.2-0.9-2.9-1.4-5.2-1.4c-2.2,0-4.1,0.5-5.6,1.4c-1.5,0.9-2.7,2.1-3.5,3.7
								c-0.8,1.5-1.1,3.2-1.1,5.1v22.1c0,1.5-0.5,2.8-1.5,3.8c-1,1-2.2,1.5-3.7,1.5c-1.5,0-2.8-0.5-3.7-1.5c-1-1-1.4-2.3-1.4-3.8
								V36.7c0-1.5,0.5-2.7,1.4-3.7c1-1,2.2-1.5,3.7-1.5c1.5,0,2.7,0.5,3.7,1.5c1,1,1.5,2.2,1.5,3.7v21.5l-1.3-0.3
								c0.5-1,1.3-2,2.2-3.2c0.9-1.1,2.1-2.2,3.4-3.2c1.3-1,2.8-1.8,4.4-2.4C277,48.6,278.8,48.2,280.7,48.2z"/>
						</g>
					</g>
				</g>
				<g>
					<g transform="translate(49.21731, 32.20354)">
						<g>
							<path class="st6" d="M298.2,90.1c0,1.5-0.5,2.8-1.5,3.8c-1,1-2.2,1.5-3.7,1.5c-1.5,0-2.8-0.5-3.7-1.5c-1-1-1.4-2.3-1.4-3.8
								V54.4c0-1.5,0.5-2.7,1.4-3.7c1-1,2.2-1.5,3.7-1.5c1.5,0,2.7,0.5,3.7,1.5c1,1,1.5,2.2,1.5,3.7V90.1z M292.9,43.5
								c-2,0-3.3-0.3-4.1-0.9c-0.8-0.6-1.2-1.7-1.2-3.4v-1.7c0-1.7,0.4-2.8,1.3-3.4c0.9-0.6,2.3-0.9,4.1-0.9c2,0,3.4,0.3,4.2,0.9
								c0.8,0.6,1.2,1.7,1.2,3.4v1.7c0,1.7-0.4,2.8-1.3,3.4S294.9,43.5,292.9,43.5z"/>
						</g>
					</g>
				</g>
				<g>
					<g transform="translate(56.706686, 32.20354)">
						<g>
							<path class="st6" d="M339.3,31.4c1.5,0,2.7,0.5,3.7,1.5c1,1,1.5,2.2,1.5,3.8v53.4c0,1.5-0.5,2.8-1.5,3.8
								c-1,1-2.2,1.5-3.7,1.5c-1.5,0-2.8-0.5-3.7-1.5c-1-1-1.4-2.3-1.4-3.8v-4.2l1.9,0.8c0,0.7-0.4,1.7-1.2,2.7
								c-0.8,1.1-1.9,2.1-3.3,3.2c-1.4,1.1-3,1.9-4.9,2.6c-1.9,0.7-3.9,1.1-6.1,1.1c-4,0-7.6-1-10.8-3.1c-3.2-2-5.8-4.9-7.7-8.5
								c-1.9-3.6-2.8-7.7-2.8-12.4c0-4.7,0.9-8.9,2.8-12.5c1.9-3.6,4.4-6.4,7.6-8.5c3.2-2,6.7-3.1,10.6-3.1c2.5,0,4.7,0.4,6.8,1.1
								c2.1,0.7,3.9,1.7,5.4,2.9c1.5,1.1,2.7,2.3,3.5,3.5c0.9,1.2,1.3,2.2,1.3,3l-3.1,1.1V36.7c0-1.5,0.5-2.7,1.4-3.7
								C336.5,31.9,337.7,31.4,339.3,31.4z M321.8,86.7c2.6,0,4.8-0.6,6.7-1.9c1.9-1.3,3.4-3,4.4-5.2c1.1-2.2,1.6-4.7,1.6-7.4
								c0-2.8-0.5-5.3-1.6-7.5c-1.1-2.2-2.5-3.9-4.4-5.2c-1.9-1.3-4.1-1.9-6.7-1.9c-2.5,0-4.7,0.6-6.6,1.9c-1.9,1.3-3.4,3-4.5,5.2
								c-1.1,2.2-1.6,4.7-1.6,7.5c0,2.7,0.5,5.2,1.6,7.4c1.1,2.2,2.6,3.9,4.5,5.2C317.1,86.1,319.3,86.7,321.8,86.7z"/>
						</g>
					</g>
				</g>
			</g>
		</g>
	</g>
	<g>
		<g>
			<g>
				<path d="M131.2,415.5c-29.3,0-53.2-23.9-53.2-53.2c0-29.3,23.9-53.2,53.2-53.2s53.2,23.9,53.2,53.2
					C184.4,391.6,160.5,415.5,131.2,415.5z M131.2,322.1c-22.2,0-40.2,18-40.2,40.2s18,40.2,40.2,40.2s40.2-18,40.2-40.2
					S153.4,322.1,131.2,322.1z"/>
			</g>
			<g>
				<defs>
					<rect id="SVGID_00000047019032224468675590000011810569630591070601_" x="166.2" y="338.8" width="8.7" height="8.7"/>
				</defs>
				<clipPath id="SVGID_00000060026648164484191330000002576608899019674790_">
					<use xlink:href="#SVGID_00000047019032224468675590000011810569630591070601_"  style="overflow:visible;"/>
				</clipPath>
				<g style="clip-path:url(#SVGID_00000060026648164484191330000002576608899019674790_);">
					<g>
						<defs>
							<circle id="SVGID_00000050662641347465503720000010626636372367879051_" cx="170.6" cy="343.1" r="4.4"/>
						</defs>
						<clipPath id="SVGID_00000008113494773942512730000015687289407822288769_">
							<use xlink:href="#SVGID_00000050662641347465503720000010626636372367879051_"  style="overflow:visible;"/>
						</clipPath>
						<g style="clip-path:url(#SVGID_00000008113494773942512730000015687289407822288769_);">
							<g transform="matrix(1, 0, 0, 1, 160, 177)">
								<g>
									<defs>
										<rect id="SVGID_00000169543387617038877620000005982903694235066497_" x="6.1" y="159.9" width="9.9" height="12.4"/>
									</defs>
									<clipPath id="SVGID_00000010310357646055680660000017970587075797048457_">
										<use xlink:href="#SVGID_00000169543387617038877620000005982903694235066497_"  style="overflow:visible;"/>
									</clipPath>
									<g style="clip-path:url(#SVGID_00000010310357646055680660000017970587075797048457_);">
										<g>
											<defs>
												<rect id="SVGID_00000021811114568724902340000015307260962920137627_" x="6.2" y="161.8" width="8.7" height="8.7"/>
											</defs>
											<clipPath id="SVGID_00000015350045767355808260000006034791591168199078_">
												<use xlink:href="#SVGID_00000021811114568724902340000015307260962920137627_"  style="overflow:visible;"/>
											</clipPath>
											<g style="clip-path:url(#SVGID_00000015350045767355808260000006034791591168199078_);">
												<g>
													<defs>
														<circle id="SVGID_00000000212336114937865750000011300561077505414784_" cx="10.6" cy="166.1" r="4.4"/>
													</defs>
													<clipPath id="SVGID_00000065058732802988101530000012539494883785147029_">
														<use xlink:href="#SVGID_00000000212336114937865750000011300561077505414784_"  style="overflow:visible;"/>
													</clipPath>
													<g style="clip-path:url(#SVGID_00000065058732802988101530000012539494883785147029_);">
														<path class="st6" d="M6.2,161.8H15v8.7H6.2V161.8z"/>
													</g>
												</g>
											</g>
										</g>
									</g>
								</g>
							</g>
						</g>
					</g>
				</g>
			</g>
			<g>
				<defs>
					<rect id="SVGID_00000142891843329363895690000016143102198579975092_" x="149.5" y="326.7" width="16.8" height="16.8"/>
				</defs>
				<clipPath id="SVGID_00000166667680221970134680000017559054519087845303_">
					<use xlink:href="#SVGID_00000142891843329363895690000016143102198579975092_"  style="overflow:visible;"/>
				</clipPath>
				<g style="clip-path:url(#SVGID_00000166667680221970134680000017559054519087845303_);">
					<g>
						<defs>
							<circle id="SVGID_00000087413032621145906420000013139028551112531098_" cx="157.9" cy="335.1" r="8.4"/>
						</defs>
						<use xlink:href="#SVGID_00000087413032621145906420000013139028551112531098_"  style="overflow:visible;"/>
						<clipPath id="SVGID_00000004514378016453875480000004172253438068486277_">
							<use xlink:href="#SVGID_00000087413032621145906420000013139028551112531098_"  style="overflow:visible;"/>
						</clipPath>
						<g style="clip-path:url(#SVGID_00000004514378016453875480000004172253438068486277_);">
							<g transform="matrix(1, 0, 0, 1, 153, 172)">
								<g>
									<defs>
										<rect id="SVGID_00000029047480556901245470000004274897225420029112_" x="-4.2" y="152.6" width="19.8" height="19.8"/>
									</defs>
									<use xlink:href="#SVGID_00000029047480556901245470000004274897225420029112_"  style="overflow:visible;"/>
									<clipPath id="SVGID_00000107567331569489368920000016391834051962935206_">
										<use xlink:href="#SVGID_00000029047480556901245470000004274897225420029112_"  style="overflow:visible;"/>
									</clipPath>
									<g style="clip-path:url(#SVGID_00000107567331569489368920000016391834051962935206_);">
										<g>
											<defs>
												<rect id="SVGID_00000052094616922173706710000006170805904046984324_" x="-3.5" y="154.7" width="16.8" height="16.8"/>
											</defs>
											<use xlink:href="#SVGID_00000052094616922173706710000006170805904046984324_"  style="overflow:visible;"/>
											<clipPath id="SVGID_00000069369855231903850870000009590769046933961908_">
												<use xlink:href="#SVGID_00000052094616922173706710000006170805904046984324_"  style="overflow:visible;"/>
											</clipPath>
											<g style="clip-path:url(#SVGID_00000069369855231903850870000009590769046933961908_);">
												<g>
													<defs>
														<circle id="SVGID_00000129915239956221116170000017230729399379629467_" cx="4.9" cy="163.1" r="8.4"/>
													</defs>
													<use xlink:href="#SVGID_00000129915239956221116170000017230729399379629467_"  style="overflow:visible;"/>
													<clipPath id="SVGID_00000035520557324431211140000013257646507376090284_">
														<use xlink:href="#SVGID_00000129915239956221116170000017230729399379629467_"  style="overflow:visible;"/>
													</clipPath>
													<g style="clip-path:url(#SVGID_00000035520557324431211140000013257646507376090284_);">
														<path d="M-3.5,154.7h16.8v16.8H-3.5V154.7z"/>
													</g>
												</g>
											</g>
										</g>
									</g>
								</g>
							</g>
						</g>
					</g>
				</g>
			</g>
			<g>
				<defs>
					<rect id="SVGID_00000117643291555262628520000008342433942079798425_" x="152" y="328.9" width="12.4" height="12.4"/>
				</defs>
				<clipPath id="SVGID_00000009577847177217739450000013632692130966055339_">
					<use xlink:href="#SVGID_00000117643291555262628520000008342433942079798425_"  style="overflow:visible;"/>
				</clipPath>
				<g style="clip-path:url(#SVGID_00000009577847177217739450000013632692130966055339_);">
					<g>
						<defs>
							<circle id="SVGID_00000132075019089854055940000001118500202464988826_" cx="158.2" cy="335.1" r="6.2"/>
						</defs>
						<clipPath id="SVGID_00000114075701743830023050000011144746675461782667_">
							<use xlink:href="#SVGID_00000132075019089854055940000001118500202464988826_"  style="overflow:visible;"/>
						</clipPath>
						<g style="clip-path:url(#SVGID_00000114075701743830023050000011144746675461782667_);">
							<g transform="matrix(1, 0, 0, 1, 154, 173)">
								<g>
									<defs>
										<rect id="SVGID_00000036959625112415570230000004140169751140773804_" x="-2.7" y="154" width="14.9" height="14.9"/>
									</defs>
									<clipPath id="SVGID_00000111176474806098494390000010492219629462601100_">
										<use xlink:href="#SVGID_00000036959625112415570230000004140169751140773804_"  style="overflow:visible;"/>
									</clipPath>
									<g style="clip-path:url(#SVGID_00000111176474806098494390000010492219629462601100_);">
										<g>
											<defs>
												<rect id="SVGID_00000079455582400518977210000007929975691080580007_" x="-2" y="155.9" width="12.4" height="12.4"/>
											</defs>
											<clipPath id="SVGID_00000003080335415317939110000016241261649416652179_">
												<use xlink:href="#SVGID_00000079455582400518977210000007929975691080580007_"  style="overflow:visible;"/>
											</clipPath>
											<g style="clip-path:url(#SVGID_00000003080335415317939110000016241261649416652179_);">
												<g>
													<defs>
														<circle id="SVGID_00000096033296594039726950000017245419734581964937_" cx="4.2" cy="162.1" r="6.2"/>
													</defs>
													<clipPath id="SVGID_00000132783878371300643290000016807433040959646121_">
														<use xlink:href="#SVGID_00000096033296594039726950000017245419734581964937_"  style="overflow:visible;"/>
													</clipPath>
													<g style="clip-path:url(#SVGID_00000132783878371300643290000016807433040959646121_);">
														<path class="st6" d="M-2,155.9h12.4v12.4H-2V155.9z"/>
													</g>
												</g>
											</g>
										</g>
									</g>
								</g>
							</g>
						</g>
					</g>
				</g>
			</g>
		</g>
		<g>
			<g>
				<g>
					<g transform="translate(174.118776, 204.981301)">
						<g>
							<path d="M39.1,199.5c0,1.6-0.4,2.9-1.2,4.1c-0.8,1.1-1.9,1.9-3.3,2.5c-1.4,0.6-3.1,0.9-5,0.9c-1,0-1.9-0.1-2.8-0.2
								c-0.9-0.1-1.7-0.2-2.5-0.4c-0.7-0.2-1.4-0.5-2-0.8v-3.5c1,0.4,2.2,0.8,3.5,1.1c1.3,0.4,2.7,0.5,4.1,0.5
								c1.2,0,2.2-0.2,3.1-0.5c0.8-0.3,1.4-0.8,1.9-1.4c0.4-0.6,0.6-1.3,0.6-2.2c0-0.8-0.2-1.5-0.6-2.1c-0.4-0.6-1.1-1.1-2-1.6
								c-0.9-0.5-2-1-3.5-1.6c-1-0.4-1.9-0.8-2.7-1.2c-0.8-0.5-1.5-1-2.1-1.6c-0.6-0.6-1.1-1.3-1.4-2.1c-0.3-0.8-0.5-1.8-0.5-2.8
								c0-1.5,0.4-2.7,1.1-3.8c0.7-1,1.7-1.8,3-2.4c1.3-0.5,2.8-0.8,4.5-0.8c1.4,0,2.7,0.1,3.9,0.4c1.2,0.3,2.4,0.6,3.4,1.1
								l-1.2,3.1c-1-0.4-2-0.8-3.1-1.1c-1-0.3-2.1-0.4-3.3-0.4c-1,0-1.9,0.2-2.6,0.5c-0.7,0.3-1.3,0.7-1.6,1.3
								c-0.4,0.5-0.5,1.2-0.5,2c0,0.9,0.2,1.6,0.6,2.1c0.4,0.6,1,1.1,1.8,1.6c0.9,0.4,2,0.9,3.3,1.4c1.5,0.6,2.7,1.2,3.8,1.9
								c1.1,0.6,1.9,1.4,2.5,2.3C38.8,196.9,39.1,198.1,39.1,199.5z"/>
						</g>
					</g>
				</g>
				<g>
					<g transform="translate(181.641412, 204.981301)">
						<g>
							<path d="M61.1,193.3c0,2-0.3,3.9-0.8,5.6c-0.5,1.7-1.3,3.1-2.3,4.3c-1,1.2-2.3,2.1-3.8,2.8c-1.5,0.6-3.3,1-5.3,1
								c-2.1,0-3.9-0.3-5.4-1c-1.5-0.6-2.8-1.6-3.8-2.8c-1-1.2-1.8-2.7-2.3-4.3c-0.5-1.7-0.8-3.6-0.8-5.6c0-2.7,0.4-5.1,1.3-7.1
								c0.9-2,2.3-3.6,4.1-4.8c1.8-1.1,4.1-1.7,6.9-1.7c2.7,0,4.9,0.6,6.7,1.7c1.8,1.1,3.2,2.7,4.1,4.7
								C60.6,188.2,61.1,190.6,61.1,193.3z M40.5,193.3c0,2.2,0.3,4,0.9,5.6c0.6,1.5,1.5,2.8,2.7,3.6c1.2,0.8,2.8,1.2,4.8,1.2
								c1.9,0,3.5-0.4,4.7-1.2c1.2-0.9,2.2-2.1,2.7-3.6c0.6-1.6,0.9-3.4,0.9-5.6c0-3.2-0.7-5.8-2-7.6c-1.3-1.8-3.4-2.8-6.3-2.8
								c-1.9,0-3.5,0.4-4.8,1.2c-1.2,0.8-2.2,2-2.8,3.6C40.8,189.3,40.5,191.2,40.5,193.3z"/>
						</g>
					</g>
				</g>
				<g>
					<g transform="translate(192.197316, 204.981301)">
						<g>
							<path d="M61.1,206.6h-3.7v-26.5h14.8v3.2H61.1v9h10.4v3.2H61.1V206.6z"/>
						</g>
					</g>
				</g>
				<g>
					<g transform="translate(199.402664, 204.981301)">
						<g>
							<path d="M79.4,206.6h-3.7v-23.3h-8v-3.2h19.8v3.2h-8V206.6z"/>
						</g>
					</g>
				</g>
				<g>
					<g transform="translate(207.045875, 204.981301)">
						<g>
							<path d="M115.6,180.1l-7,26.5h-3.9l-4.8-16.8c-0.2-0.4-0.3-0.9-0.4-1.4c-0.1-0.5-0.2-1-0.4-1.6c-0.1-0.5-0.2-1-0.3-1.4
								c-0.1-0.4-0.2-0.7-0.2-0.9c0,0.2-0.1,0.5-0.2,0.9c-0.1,0.4-0.2,0.8-0.3,1.3c-0.1,0.5-0.2,1-0.4,1.6c-0.1,0.5-0.3,1-0.4,1.5
								l-4.7,16.8h-3.9l-7-26.5h3.8l4.1,16c0.1,0.5,0.2,1.1,0.4,1.6c0.1,0.5,0.3,1.1,0.4,1.6c0.1,0.5,0.2,1.1,0.3,1.6
								c0.1,0.5,0.2,1,0.2,1.4c0.1-0.5,0.1-1,0.2-1.5c0.1-0.5,0.2-1.1,0.4-1.6c0.1-0.6,0.2-1.1,0.4-1.6c0.1-0.6,0.2-1.1,0.4-1.6
								l4.5-16h3.7l4.7,16.1c0.1,0.5,0.3,1,0.4,1.6c0.1,0.5,0.3,1.1,0.4,1.6c0.1,0.5,0.2,1.1,0.3,1.6c0.1,0.5,0.2,1,0.3,1.4
								c0.1-0.6,0.2-1.2,0.3-1.9c0.1-0.7,0.3-1.4,0.4-2.2c0.2-0.8,0.3-1.5,0.5-2.2l4.1-16H115.6z"/>
						</g>
					</g>
				</g>
				<g>
					<g transform="translate(219.575313, 204.981301)">
						<g>
							<path d="M124.6,206.6l-2.9-7.9h-10.3l-2.9,7.9h-3.9l10.1-26.6h3.8l10,26.6H124.6z M120.6,195.5l-2.8-7.8
								c-0.1-0.3-0.2-0.7-0.4-1.2c-0.2-0.5-0.4-1.1-0.5-1.6c-0.2-0.6-0.3-1-0.4-1.4c-0.2,0.5-0.3,1-0.4,1.6c-0.2,0.5-0.3,1-0.4,1.5
								c-0.2,0.5-0.3,0.9-0.4,1.2l-2.9,7.8H120.6z"/>
						</g>
					</g>
				</g>
				<g>
					<g transform="translate(228.37345, 204.981301)">
						<g>
							<path d="M131.7,180.1c2.3,0,4.1,0.3,5.5,0.8c1.4,0.5,2.5,1.4,3.3,2.5c0.7,1.1,1.1,2.5,1.1,4.2c0,1.3-0.3,2.5-0.8,3.4
								c-0.5,0.9-1.1,1.7-1.9,2.3c-0.8,0.6-1.7,1.1-2.6,1.4l7.4,11.8h-4.2l-6.5-10.8h-4.9v10.8h-3.7v-26.5H131.7z M131.5,183.3h-3.3
								v9.4h3.6c2.1,0,3.6-0.4,4.5-1.2c1-0.8,1.5-2,1.5-3.7c0-1.7-0.5-2.8-1.6-3.5C135.2,183.6,133.6,183.3,131.5,183.3z"/>
						</g>
					</g>
				</g>
				<g>
					<g transform="translate(236.924097, 204.981301)">
						<g>
							<path d="M155.1,206.6h-14.8v-26.5h14.8v3.2H144v7.8h10.5v3.2H144v9h11.1V206.6z"/>
						</g>
					</g>
				</g>
			</g>
			<g>
				<g>
					<g transform="translate(1.044099, 32.20354)">
						<g>
							<path class="st6" d="M200.5,344.4c-1.5,0-2.8-0.5-3.7-1.5c-1-1-1.4-2.3-1.4-3.8v-35.7c0-1.5,0.5-2.7,1.4-3.7
								c1-1,2.2-1.5,3.7-1.5c1.5,0,2.7,0.5,3.7,1.5c1,1,1.5,2.2,1.5,3.7v8.1l-0.6-5.8c0.6-1.4,1.4-2.6,2.4-3.7c1-1.1,2.2-2,3.4-2.7
								c1.3-0.7,2.6-1.3,4.1-1.6c1.4-0.3,2.9-0.5,4.3-0.5c1.7,0,3.2,0.5,4.3,1.5c1.2,1,1.8,2.1,1.8,3.4c0,1.9-0.5,3.3-1.5,4.1
								c-1,0.8-2,1.2-3.2,1.2c-1.1,0-2.1-0.2-3-0.6c-0.9-0.4-1.9-0.6-3.1-0.6c-1.1,0-2.1,0.3-3.2,0.8c-1.1,0.5-2,1.3-2.9,2.3
								c-0.9,1-1.6,2.3-2.1,3.8c-0.5,1.5-0.8,3.3-0.8,5.4v20.5c0,1.5-0.5,2.8-1.5,3.8C203.2,343.9,202,344.4,200.5,344.4z"/>
						</g>
					</g>
				</g>
				<g>
					<g transform="translate(14.118775, 32.20354)">
						<g>
							<path class="st6" d="M238.4,297.3c3.3,0,6.2,0.4,8.6,1.1c2.5,0.7,4.4,1.7,5.7,2.9c1.4,1.2,2,2.7,2,4.4c0,1.2-0.3,2.3-1,3.3
								c-0.7,1-1.7,1.5-3,1.5c-0.9,0-1.7-0.1-2.3-0.4c-0.6-0.3-1.1-0.6-1.6-1c-0.5-0.4-1-0.8-1.6-1.1c-0.6-0.3-1.4-0.6-2.6-0.8
								c-1.2-0.2-2.1-0.3-2.6-0.3c-3,0-5.5,0.6-7.5,1.9c-2,1.3-3.6,3-4.7,5.1c-1.1,2.2-1.6,4.7-1.6,7.5c0,2.8,0.6,5.2,1.7,7.4
								c1.1,2.2,2.7,3.9,4.7,5.2c2,1.3,4.3,1.9,6.9,1.9c1.4,0,2.7-0.1,3.7-0.3c1-0.2,1.9-0.4,2.6-0.8c0.8-0.5,1.5-1,2.1-1.5
								c0.6-0.5,1.6-0.8,2.9-0.8c1.5,0,2.7,0.5,3.4,1.4c0.8,0.9,1.2,2.1,1.2,3.4c0,1.4-0.8,2.8-2.4,4c-1.6,1.2-3.7,2.2-6.3,2.9
								c-2.6,0.7-5.5,1.1-8.5,1.1c-4.5,0-8.5-1-11.8-3.2c-3.4-2.1-5.9-5-7.8-8.6c-1.8-3.6-2.7-7.7-2.7-12.2c0-4.7,1-8.9,2.9-12.5
								c1.9-3.6,4.6-6.4,8-8.5C230,298.3,234,297.3,238.4,297.3z"/>
						</g>
					</g>
				</g>
				<g>
					<g transform="translate(30.620804, 32.20354)">
						<g>
							<path class="st6" d="M270.6,297.3c4.1,0,7.3,0.9,9.5,2.7c2.2,1.8,3.6,4.2,4.4,7.2c0.8,3,1.2,6.2,1.2,9.9v22.1
								c0,1.5-0.5,2.8-1.5,3.8c-1,1-2.2,1.5-3.7,1.5c-1.5,0-2.8-0.5-3.7-1.5c-1-1-1.4-2.3-1.4-3.8V317c0-1.9-0.2-3.6-0.7-5.1
								c-0.5-1.5-1.3-2.7-2.5-3.7c-1.2-0.9-2.9-1.4-5.2-1.4c-2.2,0-4.1,0.5-5.6,1.4c-1.5,0.9-2.7,2.1-3.5,3.7
								c-0.8,1.5-1.1,3.2-1.1,5.1v22.1c0,1.5-0.5,2.8-1.5,3.8c-1,1-2.2,1.5-3.7,1.5c-1.5,0-2.8-0.5-3.7-1.5c-1-1-1.4-2.3-1.4-3.8
								v-53.4c0-1.5,0.5-2.7,1.4-3.7c1-1,2.2-1.5,3.7-1.5c1.5,0,2.7,0.5,3.7,1.5c1,1,1.5,2.2,1.5,3.7v21.5l-1.3-0.3
								c0.5-1,1.3-2,2.2-3.2c0.9-1.1,2.1-2.2,3.4-3.2c1.3-1,2.8-1.8,4.4-2.4C267,297.6,268.7,297.3,270.6,297.3z"/>
						</g>
					</g>
				</g>
				<g>
					<g transform="translate(49.21731, 32.20354)">
						<g>
							<path class="st6" d="M288.2,339.1c0,1.5-0.5,2.8-1.5,3.8c-1,1-2.2,1.5-3.7,1.5c-1.5,0-2.8-0.5-3.7-1.5c-1-1-1.4-2.3-1.4-3.8
								v-35.7c0-1.5,0.5-2.7,1.4-3.7c1-1,2.2-1.5,3.7-1.5c1.5,0,2.7,0.5,3.7,1.5c1,1,1.5,2.2,1.5,3.7V339.1z M282.9,292.5
								c-2,0-3.3-0.3-4.1-0.9c-0.8-0.6-1.2-1.7-1.2-3.4v-1.7c0-1.7,0.4-2.8,1.3-3.4c0.9-0.6,2.3-0.9,4.1-0.9c2,0,3.4,0.3,4.2,0.9
								c0.8,0.6,1.2,1.7,1.2,3.4v1.7c0,1.7-0.4,2.8-1.3,3.4C286.3,292.2,284.9,292.5,282.9,292.5z"/>
						</g>
					</g>
				</g>
				<g>
					<g transform="translate(56.706686, 32.20354)">
						<g>
							<path class="st6" d="M329.2,280.4c1.5,0,2.7,0.5,3.7,1.5c1,1,1.5,2.2,1.5,3.8v53.4c0,1.5-0.5,2.8-1.5,3.8
								c-1,1-2.2,1.5-3.7,1.5c-1.5,0-2.8-0.5-3.7-1.5c-1-1-1.4-2.3-1.4-3.8v-4.2l1.9,0.8c0,0.7-0.4,1.7-1.2,2.7
								c-0.8,1.1-1.9,2.1-3.3,3.2c-1.4,1.1-3,1.9-4.9,2.6c-1.9,0.7-3.9,1.1-6.1,1.1c-4,0-7.6-1-10.8-3.1s-5.8-4.9-7.7-8.5
								c-1.9-3.6-2.8-7.7-2.8-12.4c0-4.7,0.9-8.9,2.8-12.5c1.9-3.6,4.4-6.4,7.6-8.5c3.2-2,6.7-3.1,10.6-3.1c2.5,0,4.7,0.4,6.8,1.1
								c2.1,0.7,3.9,1.7,5.4,2.9c1.5,1.1,2.7,2.3,3.5,3.5c0.9,1.2,1.3,2.2,1.3,3l-3.1,1.1v-23.2c0-1.5,0.5-2.7,1.4-3.7
								C326.5,280.9,327.7,280.4,329.2,280.4z M311.7,335.8c2.6,0,4.8-0.6,6.7-1.9c1.9-1.3,3.4-3,4.4-5.2c1.1-2.2,1.6-4.7,1.6-7.4
								c0-2.8-0.5-5.3-1.6-7.5c-1.1-2.2-2.5-3.9-4.4-5.2c-1.9-1.3-4.1-1.9-6.7-1.9c-2.5,0-4.7,0.6-6.6,1.9c-1.9,1.3-3.4,3-4.5,5.2
								c-1.1,2.2-1.6,4.7-1.6,7.5c0,2.7,0.5,5.2,1.6,7.4c1.1,2.2,2.6,3.9,4.5,5.2C307.1,335.2,309.3,335.8,311.7,335.8z"/>
						</g>
					</g>
				</g>
			</g>
		</g>
	</g>
</g>
</svg>
